<svg width="444" height="332" viewBox="0 0 444 332" fill="none" xmlns="http://www.w3.org/2000/svg">
<circle cx="221.28" cy="166" r="152.5" stroke="#4818AD" stroke-width="27"/>
<g filter="url(#filter0_d)">
<path d="M19.2802 109.957C19.2802 109.957 64.8575 118.948 115.445 168.718C124.632 177.757 139.629 173.043 139.22 160.161C138.458 136.177 134.901 110.788 133.025 98.7701C132.368 94.558 134.547 90.4142 138.41 88.61V88.61C143.612 86.1797 149.76 88.9327 151.412 94.4324L195.058 239.761C196.432 244.334 201.217 246.962 205.813 245.667V245.667C209.586 244.605 212.192 241.163 212.192 237.244V131.794C212.192 126.764 215.148 122.203 219.74 120.15V120.15C226.873 116.961 235.17 120.875 237.245 128.407L257.865 203.271C259.178 208.038 264.199 210.751 268.905 209.235V209.235C272.497 208.079 274.932 204.737 274.932 200.964V100.229C274.932 97.2392 276.867 94.5938 279.716 93.6886V93.6886C283.256 92.5641 287.055 94.389 288.51 97.8061C298.664 121.66 340.965 205.187 423.28 170.129" stroke="#4818AD" stroke-width="27"/>
</g>
<path d="M16.6752 123.18C7.46573 121.354 1.1755 113.946 2.6256 106.634C4.07569 99.3217 12.717 94.8748 21.9265 96.7012C18.3742 114.613 20.5364 103.71 16.6752 123.18Z" fill="#4818AD"/>
<path d="M428.411 182.603C436.964 178.731 441.407 170.088 438.333 163.297C435.259 156.505 425.834 154.138 417.28 158.009C424.81 174.646 420.227 164.519 428.411 182.603Z" fill="#4818AD"/>
<defs>
<filter id="filter0_d" x="12.6096" y="73.2151" width="421.96" height="195.286" filterUnits="userSpaceOnUse" color-interpolation-filters="sRGB">
<feFlood flood-opacity="0" result="BackgroundImageFix"/>
<feColorMatrix in="SourceAlpha" type="matrix" values="0 0 0 0 0 0 0 0 0 0 0 0 0 0 0 0 0 0 127 0"/>
<feOffset dx="1" dy="4"/>
<feGaussianBlur stdDeviation="2.5"/>
<feColorMatrix type="matrix" values="0 0 0 0 0 0 0 0 0 0 0 0 0 0 0 0 0 0 0.31 0"/>
<feBlend mode="normal" in2="BackgroundImageFix" result="effect1_dropShadow"/>
<feBlend mode="normal" in="SourceGraphic" in2="effect1_dropShadow" result="shape"/>
</filter>
</defs>
</svg>
